# xmcd
#
# Track frame offsets: 
#        150
#        17107
#        38275
#        62577
#        84670
#        102515
#        119757
#        147835
#        167222
#        189187
#        209150
#        229550
#
# Disc length: 3574 seconds
#
# Revision: 9
# Processed by: cddbd v1.5.2PL0 Copyright (c) Steve Scherf et al.
# Submitted via: ExactAudioCopyFreeDBPlugin 1.0
#
DISCID=a20df40c
DTITLE=Dem Franchize Boyz - On Top Of Our Game
DYEAR=2006
DGENRE=Rap
TTITLE0=My Music (feat. Bun B)
TTITLE1=I Think They Like Me (So So Def Remix) (feat. Jermaine Dupri, 
TTITLE1=Da Brat and Bow Wow)
TTITLE2=Ridin' Rims
TTITLE3=Bricks 4 The High (feat. Jim Jones and Damon Dash)
TTITLE4=You Know What It Is
TTITLE5=Lean Wit It, Rock Wit It (feat. Peanut and Charlay)
TTITLE6=Freaky As She Wanna Be (feat. Trey Songz)
TTITLE7=Stop Callin' Me
TTITLE8=Give Props
TTITLE9=Suckas Come And Try Me (feat. DJ Unk)
TTITLE10=Don't Play With Me (feat. Three 6 Mafia)
TTITLE11=They Don't Like That - White Tee (Remix) (feat. Jermaine Dupr
TTITLE11=i and The Kid Slim) [Hidden Track]
EXTD=www.RapMusicGuide.com
EXTT0=
EXTT1=
EXTT2=
EXTT3=
EXTT4=
EXTT5=
EXTT6=
EXTT7=
EXTT8=
EXTT9=
EXTT10=
EXTT11=
PLAYORDER=
